<svg width="36" height="27" viewBox="0 0 36 27" fill="none" xmlns="http://www.w3.org/2000/svg">
<path d="M3.95822 0.446035L3.13359 0.900524L2.91094 1.50079L2.69654 2.10106L1.34415 2.44407C0.610226 2.6413 0 2.82995 0 2.8814C0 2.92428 0.181418 3.45594 0.395822 4.07336L0.791644 5.18814L1.65751 5.68551L2.52337 6.1743L3.46344 6.11427C4.01595 6.08854 4.41177 6.09712 4.41177 6.13999C4.42001 6.18287 4.51072 6.75741 4.61793 7.4177L4.80759 8.61824L4.23035 10.5648L3.65311 12.5028L3.78505 12.9916C3.94173 13.5318 4.04068 13.5404 4.13139 13.0088L4.18912 12.6486L4.30457 13.1202C4.46949 13.8406 4.60143 14.235 4.65916 14.235C4.69214 14.235 4.74987 14.1493 4.79934 14.0549C4.86531 13.8834 4.99725 14.0206 6.20121 15.4784L7.52887 17.082L7.58659 18.8228C7.63607 20.3577 7.62782 20.6064 7.49588 21.0438C7.34745 21.524 7.34745 21.5325 7.52887 21.9099C7.66905 22.21 7.71853 22.5273 7.76801 23.2905C7.82573 24.4138 7.81749 24.431 7.25674 24.4396C6.95987 24.4396 6.86916 24.5082 6.37439 25.0055C6.06103 25.3142 5.81364 25.5886 5.81364 25.6058C5.81364 25.6229 5.8961 25.6401 6.0033 25.6401C6.10226 25.6401 6.32491 25.7344 6.48983 25.8545C6.77021 26.0517 6.86092 26.0688 7.81749 26.0688H8.84003L9.1369 25.6144L9.44201 25.1599V24.0194C9.44201 23.0418 9.49149 22.6816 9.64817 22.4844C9.66466 22.4672 9.7966 22.5187 9.93679 22.5959L10.2089 22.7417L10.1512 22.5273C10.1265 22.4072 10.077 22.2443 10.044 22.1585C9.99451 22.0213 10.0275 22.0299 10.2914 22.2014C10.4563 22.3043 10.5965 22.3815 10.5965 22.3643C10.5965 22.3472 10.5635 22.21 10.514 22.0471L10.4398 21.7641L10.613 21.9184C10.7862 22.0814 10.7862 22.0814 10.7367 21.7812C10.6212 21.1124 10.58 19.869 10.6377 18.8485L10.6954 17.768L12.6828 17.708C14.4393 17.648 14.7361 17.6222 15.2227 17.4507C15.6597 17.2878 15.8411 17.2707 16.0968 17.3307C16.6905 17.4679 16.7812 17.4422 16.7812 17.1077V16.799L17.0286 16.9362C17.3832 17.1249 17.5069 17.0991 17.6553 16.7904L17.7873 16.5246L18.0594 16.859C18.2078 17.0391 18.348 17.1763 18.3727 17.1506C18.3975 17.1249 18.6366 16.8076 18.917 16.4389C19.3541 15.8386 19.42 15.7871 19.453 15.9672C19.4777 16.0787 19.5272 16.3188 19.5685 16.5075L19.6344 16.8505L19.9643 16.3188L20.2941 15.7786L20.5415 16.2073C20.7889 16.6447 20.9044 16.739 20.9044 16.4903C20.9044 16.1473 21.0363 16.5503 21.2754 17.6394L21.5311 18.8228L22.5124 19.7403C23.0566 20.2463 23.5432 20.6493 23.5844 20.6321C23.6339 20.6236 23.6834 20.5207 23.6916 20.4092C23.7163 20.2377 23.7988 20.2891 24.4173 20.9323L25.11 21.6526V21.3267V21.0009L26.05 21.8241C26.9571 22.613 26.9984 22.6645 27.0808 23.0932C27.1303 23.3419 27.221 23.745 27.2705 23.9936C27.3859 24.5339 27.353 24.5682 26.7427 24.6539C26.5283 24.6882 26.3222 24.7568 26.2809 24.8083C26.2397 24.8683 26.149 25.1684 26.083 25.4857C25.9346 26.1718 25.8027 26.1289 27.3777 25.9402C28.5569 25.7944 28.4909 25.8287 29.0352 25.0227L29.2414 24.714L28.9445 22.6216C28.5487 19.7918 28.6229 20.0662 28.2271 20.0662C27.8972 20.0662 27.8972 20.0662 27.9467 19.7918C27.9714 19.6374 28.0209 19.3201 28.0457 19.0715L28.1034 18.6255L28.3755 18.7456C28.5239 18.8142 28.6724 18.8656 28.7054 18.8656C28.7383 18.8656 28.7383 18.5141 28.7054 18.0767C28.6559 17.2964 28.6559 17.2964 28.8208 17.4507C28.9115 17.5365 29.0022 17.5879 29.0187 17.5708C29.0352 17.5536 29.1671 16.5589 29.3073 15.367L29.563 13.1974L29.2661 12.4685C29.1012 12.0741 28.9857 11.7225 29.0105 11.6967C29.0352 11.671 29.9341 11.8854 31.0061 12.177C32.0863 12.4599 32.9769 12.6829 33.0017 12.6658C33.0182 12.64 32.944 12.52 32.845 12.3828C32.3997 11.8168 32.3667 11.8768 33.2491 11.6196L34.0572 11.3795L34.8983 10.4276L35.7477 9.47576L35.3436 9.43289L34.9478 9.39001L35.5085 8.01797C35.8137 7.26335 36.0363 6.63736 35.9951 6.62021C35.9621 6.60306 35.7889 6.65451 35.6157 6.73169C35.4508 6.80029 35.2941 6.84316 35.2776 6.82601C35.2529 6.80886 35.3519 6.2429 35.4921 5.56545C35.6322 4.89658 35.7394 4.33919 35.7229 4.32204C35.7065 4.30489 35.558 4.40779 35.3931 4.55358L35.0962 4.81083L34.3953 3.88471C34.0077 3.37019 33.6366 2.8814 33.5707 2.78708C33.447 2.61557 33.447 2.61557 33.447 2.78708C33.447 2.8814 33.5872 3.59315 33.7603 4.36492L34.0819 5.77126L32.845 7.2119C31.9874 8.2152 31.5503 8.66111 31.3936 8.69542C30.9319 8.79832 27.6168 9.34713 27.4684 9.34713C27.3777 9.34713 26.8005 9.05557 26.1737 8.70399L25.044 8.05227L21.0116 7.93222C18.8016 7.86362 16.5173 7.80359 15.9483 7.80359H14.9011L13.2188 6.81744L11.5366 5.83129L10.4316 4.27917C8.80704 1.99815 8.86477 2.10106 8.86477 1.58654C8.86477 1.14063 8.86477 1.13206 8.30402 0.626116L7.75152 0.111601L6.26718 0.0515747L4.78285 0.000123978L3.95822 0.446035Z" fill="white"/>
</svg>
